<?xml version="1.0" encoding="UTF-8"?>
<svg width="24" height="24" viewBox="0 0 24 24" fill="none" xmlns="http://www.w3.org/2000/svg">
  <path d="M12 2C6.48 2 2 6.48 2 12C2 17.52 6.48 22 12 22C17.52 22 22 17.52 22 12C22 6.48 17.52 2 12 2ZM12 20C7.58 20 4 16.42 4 12C4 7.58 7.58 4 12 4C16.42 4 20 7.58 20 12C20 16.42 16.42 20 12 20Z" fill="url(#paint0_linear)"/>
  <path d="M8 14C9.1 14 10 13.1 10 12C10 10.9 9.1 10 8 10C6.9 10 6 10.9 6 12C6 13.1 6.9 14 8 14ZM16 14C17.1 14 18 13.1 18 12C18 10.9 17.1 10 16 10C14.9 10 14 10.9 14 12C14 13.1 14.9 14 16 14ZM12 17C14.21 17 16 15.21 16 13H8C8 15.21 9.79 17 12 17Z" fill="url(#paint1_linear)"/>
  <defs>
    <linearGradient id="paint0_linear" x1="2" y1="2" x2="22" y2="22" gradientUnits="userSpaceOnUse">
      <stop stop-color="#8B5CF6"/>
      <stop offset="1" stop-color="#3B82F6"/>
    </linearGradient>
    <linearGradient id="paint1_linear" x1="6" y1="10" x2="18" y2="17" gradientUnits="userSpaceOnUse">
      <stop stop-color="#8B5CF6"/>
      <stop offset="1" stop-color="#3B82F6"/>
    </linearGradient>
  </defs>
</svg>
